<?xml version="1.0" encoding="UTF-8" standalone="no"?>
<!-- Generator: Adobe Illustrator 19.0.0, SVG Export Plug-In . SVG Version: 6.00 Build 0)  -->

<svg
   xmlns:dc="http://purl.org/dc/elements/1.1/"
   xmlns:cc="http://creativecommons.org/ns#"
   xmlns:rdf="http://www.w3.org/1999/02/22-rdf-syntax-ns#"
   xmlns:svg="http://www.w3.org/2000/svg"
   xmlns="http://www.w3.org/2000/svg"
   xmlns:sodipodi="http://sodipodi.sourceforge.net/DTD/sodipodi-0.dtd"
   xmlns:inkscape="http://www.inkscape.org/namespaces/inkscape"
   version="1.1"
   id="Layer_1"
   x="0px"
   y="0px"
   viewBox="0 0 508 508"
   style="enable-background:new 0 0 508 508;"
   xml:space="preserve"
   sodipodi:docname="industrial-robot.svg"
   inkscape:version="0.92.3 (2405546, 2018-03-11)"><metadata
   id="metadata880"><rdf:RDF><cc:Work
       rdf:about=""><dc:format>image/svg+xml</dc:format><dc:type
         rdf:resource="http://purl.org/dc/dcmitype/StillImage" /><dc:title></dc:title></cc:Work></rdf:RDF></metadata><defs
   id="defs878" /><sodipodi:namedview
   pagecolor="#ffffff"
   bordercolor="#666666"
   borderopacity="1"
   objecttolerance="10"
   gridtolerance="10"
   guidetolerance="10"
   inkscape:pageopacity="0"
   inkscape:pageshadow="2"
   inkscape:window-width="1920"
   inkscape:window-height="1017"
   id="namedview876"
   showgrid="false"
   inkscape:zoom="0.20915354"
   inkscape:cx="365.18135"
   inkscape:cy="943.45892"
   inkscape:window-x="1912"
   inkscape:window-y="-8"
   inkscape:window-maximized="1"
   inkscape:current-layer="Layer_1" />
<ellipse
   style="fill:#11002b;stroke-width:3.75591159"
   cx="253.44183"
   cy="172.50606"
   id="circle815"
   rx="960.1145"
   ry="947.92767" />
<path
   style="fill:#550000;stroke-width:3.60942054"
   d="m -468.22062,797.59672 c 170.0033,208.01358 428.640799,339.99458 719.2447,339.99458 290.6039,0 549.2413,-131.981 719.24463,-339.99458 z"
   id="path817"
   inkscape:connector-curvature="0" />

<ellipse
   style="fill:#324a5e;stroke-width:4.16775322"
   cx="689.45013"
   cy="-378.50919"
   id="circle821"
   rx="112.41149"
   ry="110.98463" />
<ellipse
   style="fill:#acb3ba;stroke-width:4.16775322"
   cx="689.45013"
   cy="-378.50919"
   id="circle823"
   rx="60.400204"
   ry="59.633533" />
<path
   style="fill:#2b3b4e;stroke-width:4.16775322"
   d="m 714.61678,-270.83748 v 124.23654 h -50.3335 v -124.23654 c 8.3889,1.65649 16.7778,3.31297 25.1668,3.31297 8.3889,0 16.7778,-1.65648 25.1667,-3.31297 z"
   id="path825"
   inkscape:connector-curvature="0" />
<path
   style="fill:#324a5e;stroke-width:4.16775322"
   d="m 771.66138,-110.15822 h -164.4227 v 0 c 0,-19.87784 15.1,-34.78623 35.2334,-34.78623 h 93.9559 c 20.1334,0 35.2334,14.90839 35.2334,34.78623 z"
   id="path827"
   inkscape:connector-curvature="0" />
<g
   id="g835"
   transform="matrix(4.1944588,0,0,4.1412179,-703.11032,-913.55449)">
	<polygon
   style="fill:#2b3b4e"
   points="292.8,194 292.8,194 269.6,230 304.8,278.4 282.4,229.2 302.8,209.6 361.6,209.6 382,229.2 359.2,278.4 394.8,230 371.2,194 292.8,194 "
   id="polygon829" />
	<path
   style="fill:#2b3b4e"
   d="m 147.2,200.8 c 1.2,-15.2 -7.2,-30.4 -22,-37.2 -1.2,-0.4 -2.4,-0.8 -3.6,-1.2 l 186,-43.2 c -1.2,3.2 -2,6.4 -2,10 0,7.6 3.2,14.4 8.4,19.2 z"
   id="path831"
   inkscape:connector-curvature="0" />
	<path
   style="fill:#2b3b4e"
   d="m 193.6,324.4 c -9.2,-8 -21.2,-12.8 -34,-12.8 -17.6,0 -33.2,8.8 -42.8,22 L 86,225.2 c 2.8,2.4 5.6,4.4 9.2,5.6 16.4,7.2 35.2,1.6 45.2,-12.8 z"
   id="path833"
   inkscape:connector-curvature="0" />
</g>
<path
   style="fill:#324a5e;stroke-width:4.16775322"
   d="m -33.674621,376.849 v 0 c -120.800399,0 -219.789699,96.07627 -219.789699,216.9998 v 203.74792 h 437.9015 V 593.8488 C 186.11498,474.58177 87.125779,376.849 -33.674621,376.849 Z"
   id="path837"
   inkscape:connector-curvature="0" />
<ellipse
   style="fill:#acb3ba;stroke-width:4.16775322"
   cx="-33.674629"
   cy="587.22284"
   id="circle839"
   rx="107.37815"
   ry="106.01518" />
<ellipse
   style="fill:#324a5e;stroke-width:4.16775322"
   cx="-240.04205"
   cy="-95.249832"
   id="circle841"
   rx="154.35609"
   ry="152.39682" />
<ellipse
   style="fill:#acb3ba;stroke-width:4.16775322"
   cx="-240.04205"
   cy="-95.249832"
   id="circle843"
   rx="83.889183"
   ry="82.824364" />
<g
   id="g845">
</g>
<g
   id="g847">
</g>
<g
   id="g849">
</g>
<g
   id="g851">
</g>
<g
   id="g853">
</g>
<g
   id="g855">
</g>
<g
   id="g857">
</g>
<g
   id="g859">
</g>
<g
   id="g861">
</g>
<g
   id="g863">
</g>
<g
   id="g865">
</g>
<g
   id="g867">
</g>
<g
   id="g869">
</g>
<g
   id="g871">
</g>
<g
   id="g873">
</g>
<path
   inkscape:connector-curvature="0"
   style="fill:#ffffff;stroke-width:1.6916585"
   d="m 1104.9364,-712.60524 c 0,34.5129 29.8942,66.73034 77.0226,84.89114 -9.4114,53.41194 -1.6857,96.46371 24.1154,113.2379 26.5197,17.24298 66.0291,5.3076 103.5295,-31.64806 36.5539,35.46306 73.4967,49.41911 99.2755,32.59643 26.4957,-17.29149 34.5528,-63.262 24.8818,-118.34254 49.088,-18.29552 76.5461,-45.76754 76.5461,-80.73487 0,-33.71185 -29.9483,-62.87585 -76.4426,-80.91985 10.4119,-57.3563 1.5901,-99.3627 -25.2801,-116.8302 -25.9047,-16.8406 -63.2776,-2.1626 -100.3684,34.2273 -38.5886,-38.6243 -75.5918,-50.416 -102.4333,-32.9 -25.8808,16.8892 -33.2655,60.7241 -23.8239,115.1239 -45.5383,17.8986 -77.0226,47.7235 -77.0226,81.29885 z"
   id="path882" /><path
   inkscape:connector-curvature="0"
   style="fill:#ffffff;stroke-width:1.6916585"
   d="m 1415.066,-663.07118 c -1.9677,0.73462 -3.9879,1.44409 -6.0464,2.13201 -4.5567,-16.26048 -10.7067,-33.55197 -18.23,-51.4146 7.1808,-17.44057 13.0917,-34.50932 17.521,-50.66562 3.682,1.2034 7.2572,2.4697 10.7018,3.8078 33.3149,12.9269 53.6353,32.04321 53.6353,46.77159 0,15.68932 -21.9471,36.0576 -57.5801,49.36882 z m -14.7854,33.02929 c 3.6023,20.51555 4.117,39.06433 1.7303,53.5646 -2.1446,13.02923 -6.4559,21.71538 -11.7869,25.1945 -11.3456,7.4037 -35.6092,-2.22003 -61.7735,-27.60314 -3.0001,-2.90974 -6.0225,-6.01707 -9.0529,-9.30402 10.1442,-12.50835 20.2821,-27.04993 30.1762,-43.19727 17.4047,-1.74046 33.847,-4.58734 48.7582,-8.4724 0.7329,3.34083 1.3862,6.6152 1.9486,9.81773 z m -149.5266,77.48026 c -11.0843,4.41311 -19.9125,4.53885 -25.2483,1.07048 -11.3567,-7.38214 -16.0759,-35.88694 -9.6376,-74.11787 a 220.67645,248.7785 0 0 1 2.6289,-13.47466 c 14.7455,3.67671 31.0684,6.32241 48.5145,7.91739 9.9594,15.80069 20.3904,30.3243 30.9027,43.04279 a 189.37861,213.49504 0 0 1 -6.8589,7.11991 c -13.9681,13.76566 -27.9648,23.5295 -40.2997,28.44196 z m -51.9289,-110.60654 c -17.5544,-6.76428 -32.0514,-15.55461 -41.9885,-25.14602 -8.9286,-8.62149 -13.4375,-17.18012 -13.4375,-24.12581 0,-14.77687 19.5444,-33.62739 52.1407,-46.43929 a 221.90166,250.15973 0 0 1 12.3908,-4.3952 c 4.5057,16.5192 10.415,33.79089 17.5464,51.2566 -7.2238,17.72614 -13.2176,35.27266 -17.7647,51.98577 a 189.45032,213.57588 0 0 1 -8.8872,-3.13605 z m 17.4079,-133.57922 c -6.7665,-38.9817 -2.2736,-68.3864 9.0337,-75.7649 12.045,-7.86 38.6762,3.348 66.7461,31.445 1.794,1.7962 3.596,3.6768 5.4011,5.622 -10.4581,12.661 -20.7935,27.075 -30.6669,42.7841 -16.9315,1.7692 -33.1396,4.6107 -48.0397,8.4167 a 225.48487,254.19926 0 0 1 -2.4743,-12.5047 z m 155.2894,43.2278 a 489.09946,551.38384 0 0 0 -10.9472,-20.2964 c 11.4873,1.6345 22.4919,3.8078 32.8257,6.4679 -3.102,11.2097 -6.9688,22.9313 -11.5224,34.94755 a 536.00157,604.25872 0 0 0 -10.3561,-21.11905 z m -63.3269,-69.5359 c 7.0931,8.6628 14.1974,18.3368 21.1854,28.8317 a 452.87368,510.54492 0 0 0 -42.5494,-0.011 c 6.9944,-10.3979 14.1593,-20.0575 21.364,-28.8209 z m -63.7333,69.6544 a 454.45896,512.33205 0 0 0 -10.1617,20.98797 c -4.4787,-11.97487 -8.3104,-23.74857 -11.4396,-35.11817 10.2717,-2.5919 21.2253,-4.7095 32.6378,-6.3171 a 452.14874,509.72766 0 0 0 -11.0365,20.4473 z m 11.3647,103.607 c -11.7901,-1.48362 -22.9094,-3.49351 -33.1779,-6.0135 3.1786,-11.57075 7.0948,-23.59773 11.669,-35.82946 a 451.67716,509.196 0 0 0 10.2064,21.00051 454.50678,512.38598 0 0 0 11.3025,20.84245 z m 52.7939,49.19458 c -7.2891,-8.86757 -14.5591,-18.6745 -21.6602,-29.22326 6.8924,0.30534 13.9202,0.45981 21.0628,0.45981 7.3385,0 14.5926,-0.185 21.7319,-0.54422 -7.0103,10.74094 -14.0891,20.56225 -21.1345,29.30767 z m 73.4043,-91.66082 c 4.8116,12.36466 8.8681,24.32697 12.0896,35.70197 -10.439,2.68523 -21.708,4.84779 -33.5825,6.45354 a 537.78122,606.26502 0 0 0 11.0523,-20.65207 488.54181,550.75517 0 0 0 10.4406,-21.50344 z m -23.7633,12.84243 a 504.22895,568.44003 0 0 1 -17.2709,31.41456 c -10.6811,0.86035 -21.7192,1.304 -32.9675,1.304 -11.2022,0 -22.1,-0.39334 -32.5948,-1.16031 a 436.229,491.78059 0 0 1 -17.5942,-31.46305 432.30323,487.35487 0 0 1 -15.359,-32.70058 436.33415,491.89913 0 0 1 15.3128,-32.71861 v 0 a 432.1726,487.20763 0 0 1 17.4556,-31.3283 c 10.7067,-0.9124 21.6842,-1.3902 32.7812,-1.3902 11.1464,0 22.1382,0.4814 32.8417,1.401 a 463.1645,522.1462 0 0 1 17.3457,31.2224 504.13337,568.33225 0 0 1 15.5199,32.56404 463.32701,522.32938 0 0 1 -15.4689,32.85146 z m 31.7264,-193.60989 c 12.0545,7.8383 16.7435,39.4451 9.1692,80.8947 a 203.17935,229.05323 0 0 1 -1.6188,8.0683 c -14.9351,-3.8851 -31.1544,-6.7769 -48.1353,-8.573 -9.8925,-15.8797 -20.1419,-30.3189 -30.4311,-42.8165 a 226.11422,254.90874 0 0 1 8.2785,-8.5604 c 26.5787,-26.0764 51.419,-36.372 62.7375,-29.0131 z"
   id="path886" /><path
   d="m 468.68848,173.73169 c 0,33.666 32.874,65.09283 84.7002,82.80797 -10.3495,52.10119 -1.8537,94.09646 26.5192,110.45901 29.1632,16.81985 72.6109,5.17737 113.8493,-30.8714 40.1977,34.59278 80.8228,48.20634 109.1713,31.79649 29.1369,-16.8671 37.9971,-61.70954 27.362,-115.43838 53.9812,-17.84658 84.1763,-44.64444 84.1763,-78.75369 0,-32.8845 -32.9336,-61.33284 -84.0624,-78.934115 11.4498,-55.94874 1.7486,-96.9243095 -27.8,-113.96318 -28.4869,-16.42736 -69.5851,-2.10949 -110.3733,33.38736 -42.435,-37.67641 -83.1268,-49.17873 -112.6438,-32.09255 -28.4606,16.4746605 -36.5814,59.23384 -26.1986,112.29871 -50.0776,17.459365 -84.7002,46.552415 -84.7002,79.303775 z"
   id="path882-4"
   inkscape:connector-curvature="0"
   style="fill:#ffffff;stroke-width:1.75206673" /><path
   d="m 819.57668,112.2762 a 265.19984,265.19984 0 0 0 -12.7446,-4.01569 240.90918,240.90918 0 0 0 1.9693,-8.692045 c 9.6469,-46.82927 3.3395,-84.55475 -18.2004,-96.9733695 -20.6516,-11.91056 -54.428,0.50806 -88.5407,30.1933695 a 264.80037,264.80037 0 0 0 -9.8571,9.04588 241.03709,241.03709 0 0 0 -6.5598,-6.05861 C 649.89248,4.0317655 614.05748,-9.3435145 592.54028,3.1119455 571.90798,15.055755 565.79678,50.522865 574.48178,94.902735 a 264.4044,264.4044 0 0 0 2.9259,13.112455 c -5.0704,1.44019 -9.9675,2.97498 -14.6525,4.60796 -41.9129,14.61218 -68.681,37.51524 -68.681,61.26972 0,24.53598 28.7339,49.14549 72.3919,64.06609 a 225.03546,225.03546 0 0 0 10.7051,3.34646 258.97825,258.97825 0 0 0 -3.1099,14.13392 c -8.2803,43.60892 -1.8134,78.23501 18.7646,90.10529 21.2543,12.25569 56.9264,-0.34168 91.6629,-30.70501 2.7455,-2.40028 5.5015,-4.94605 8.261,-7.61442 a 259.90159,259.90159 0 0 0 10.7016,9.76425 c 33.6467,28.95289 66.8764,40.64443 87.4369,28.74265 21.2351,-12.29252 28.1347,-49.49061 19.1746,-94.74826 -0.6833,-3.45681 -1.4805,-6.98728 -2.374,-10.5825 2.5054,-0.73938 4.9636,-1.50329 7.3622,-2.2987 45.3855,-15.03624 74.9131,-39.34616 74.9131,-64.20977 0,-23.84037 -27.6301,-46.89752 -70.3875,-61.61667 z"
   id="path884"
   inkscape:connector-curvature="0"
   style="fill:#53c1de;stroke-width:1.75206673" /><path
   d="m 809.73178,222.05021 c -2.1638,0.71661 -4.3854,1.40863 -6.6491,2.07969 -5.0109,-15.86145 -11.7739,-32.72861 -20.0471,-50.15289 7.8965,-17.01258 14.3967,-33.66247 19.2674,-49.42228 4.0491,1.17385 7.9807,2.40906 11.7687,3.71435 36.6357,12.60961 58.9815,31.25687 58.9815,45.62379 0,15.30433 -24.1347,35.17275 -63.3197,48.15734 z m -16.2592,32.21872 c 3.9614,20.01216 4.5274,38.10575 1.9028,52.25014 -2.3583,12.70955 -7.0994,21.1825 -12.9618,24.57625 -12.4765,7.22206 -39.1587,-2.16557 -67.9312,-26.92578 -3.2991,-2.83832 -6.6228,-5.86938 -9.9552,-9.07568 11.1554,-12.20142 22.3038,-26.38609 33.1841,-42.13718 19.1396,-1.69779 37.221,-4.47482 53.6185,-8.26453 0.806,3.25887 1.5243,6.45287 2.1428,9.57678 z m -164.4314,75.57895 c -12.1892,4.3048 -21.8974,4.42745 -27.7651,1.04423 -12.4887,-7.20103 -17.6783,-35.00629 -10.5982,-72.29906 a 242.67351,242.67351 0 0 1 2.8909,-13.14401 c 16.2154,3.58649 34.1653,6.16727 53.3504,7.72315 10.9522,15.41292 22.423,29.58009 33.9831,41.98648 a 208.25592,208.25592 0 0 1 -7.5426,6.94518 c -15.3604,13.42785 -30.7523,22.95212 -44.3168,27.74403 z M 571.93598,221.9556 c -19.3043,-6.59829 -35.2463,-15.17294 -46.174,-24.52895 -9.8185,-8.40989 -14.7769,-16.75849 -14.7769,-23.53378 0,-14.41423 21.4926,-32.80219 57.3382,-45.29967 a 244.02086,244.02086 0 0 1 13.6258,-4.2873 c 4.9548,16.11379 11.4532,32.96162 19.2955,49.99873 -7.9439,17.29115 -14.5351,34.40707 -19.5356,50.71008 a 208.33476,208.33476 0 0 1 -9.773,-3.05911 z m 19.1431,-130.301195 c -7.441,-38.02513 -2.5002,-66.70823 9.9343,-73.90569 13.2455,-7.66706 42.5313,3.26583 73.3993,30.67339 1.9728,1.75212 3.9544,3.58649 5.9394,5.48398 -11.5005,12.3503 -22.8662,26.41069 -33.7237,41.73427 -18.6192,1.72577 -36.443,4.497535 -52.8283,8.210135 a 247.96125,247.96125 0 0 1 -2.721,-12.197845 z m 170.7687,42.166985 a 537.85297,537.85297 0 0 0 -12.0384,-19.79834 c 12.6323,1.59433 24.7339,3.71436 36.0978,6.30913 -3.4113,10.93472 -7.6636,22.36865 -12.671,34.08999 a 589.43032,589.43032 0 0 0 -11.3884,-20.60078 z m -69.6394,-67.829515 c 7.8002,8.45018 15.6127,17.88686 23.2972,28.12417 a 498.01623,498.01623 0 0 0 -46.7907,-0.0111 c 7.6916,-10.1427 15.5706,-19.56533 23.4935,-28.11369 z m -70.0861,67.945145 a 499.75953,499.75953 0 0 0 -11.1747,20.47291 c -4.9251,-11.68106 -9.1388,-23.16587 -12.5799,-34.25643 11.2956,-2.52821 23.341,-4.5939 35.8911,-6.16201 a 497.21904,497.21904 0 0 0 -12.1365,19.94553 z m 12.4974,101.06447 c -12.9653,-1.4472 -25.1929,-3.40781 -36.485,-5.86594 3.4954,-11.2868 7.8019,-23.01862 12.8321,-34.9502 a 496.70042,496.70042 0 0 0 11.2238,20.48515 499.81209,499.81209 0 0 0 12.4291,20.33099 z m 58.0565,47.98732 c -8.0157,-8.64994 -16.0104,-18.21625 -23.8193,-28.50612 7.5794,0.29782 15.3078,0.44858 23.1623,0.44858 8.07,0 16.0472,-0.1805 23.8982,-0.5309 -7.7091,10.47735 -15.4936,20.05764 -23.2412,28.58844 z m 80.7212,-89.41147 c 5.2913,12.06127 9.752,23.73003 13.2947,34.82586 -11.4795,2.61937 -23.8719,4.72885 -36.93,6.2952 a 591.38738,591.38738 0 0 0 12.154,-20.14529 537.23975,537.23975 0 0 0 11.4813,-20.97577 z m -26.1321,12.52729 a 554.4906,554.4906 0 0 1 -18.9923,30.64365 c -11.7459,0.83927 -23.8842,1.27198 -36.2538,1.27198 -12.3188,0 -24.3029,-0.38371 -35.8438,-1.13182 a 479.71239,479.71239 0 0 1 -19.3481,-30.69095 475.3953,475.3953 0 0 1 -16.8899,-31.89813 479.82802,479.82802 0 0 1 16.8391,-31.91562 v 0.007 a 475.25162,475.25162 0 0 1 19.1956,-30.55958 c 11.774,-0.89002 23.8457,-1.35611 36.0488,-1.35611 12.2575,0 24.345,0.4696 36.1154,1.36665 a 509.33283,509.33283 0 0 1 19.0747,30.45619 554.38548,554.38548 0 0 1 17.0669,31.76491 509.51154,509.51154 0 0 1 -17.0108,32.04532 z m 34.889,-188.858775 c 13.2561,7.64605 18.4124,38.47716 10.0831,78.90959 a 223.43232,223.43232 0 0 1 -1.7801,7.870285 c -16.4239,-3.78971 -34.2599,-6.610535 -52.9334,-8.362595 -10.8787,-15.49003 -22.1497,-29.57489 -33.4645,-41.76577 a 248.65332,248.65332 0 0 1 9.1037,-8.35035 c 29.228,-25.43654 56.5445,-35.47935 68.9912,-28.30116 z"
   id="path886-3"
   inkscape:connector-curvature="0"
   style="fill:#ffffff;stroke-width:1.75206673" /><path
   d="m 692.01918,138.54146 c 19.525,0 35.3514,15.82813 35.3514,35.35141 0,19.52505 -15.8264,35.35325 -35.3514,35.35325 -19.5233,0 -35.3515,-15.8282 -35.3515,-35.35325 0,-19.52328 15.8282,-35.35141 35.3515,-35.35141"
   id="path888"
   inkscape:connector-curvature="0"
   style="fill:#53c1de;stroke-width:1.75206673" /><path
   inkscape:connector-curvature="0"
   d="m 389.27948,322.77817 -56.2264,112.2344 c -5.0221,10.04432 0.3275,22.05383 11.0269,25.11081 l 216.0621,61.68524 c 7.7516,2.18354 16.0491,-1.09177 20.1978,-7.96996 l 100.225,-165.94968 -273.162,-34.8276 c -7.5332,-0.87342 -14.7389,2.94779 -18.1234,9.71679 z m 638.79702,112.2344 -56.22637,-112.2344 c -3.3845,-6.769 -10.69938,-10.69938 -18.23263,-9.71679 l -273.05262,34.8276 100.1156,166.05886 c 4.1488,6.87818 12.4462,10.15351 20.1978,7.96995 l 216.06212,-61.68524 c 10.8086,-3.16615 16.0491,-15.17566 11.1361,-25.21998 z M 795.96528,557.50963 c -18.4509,0 -35.8101,-9.82596 -45.1994,-25.54751 l -70.201,-116.38313 -70.092,116.38313 c -9.4984,15.83073 -26.8577,25.6567 -45.3086,25.6567 -4.913,0 -9.8259,-0.65507 -14.5206,-2.07438 l -149.573,-42.79755 V 707.0827 c 0,16.04907 10.9177,30.02379 26.4208,33.84499 l 236.0417,59.06498 c 11.1361,2.72944 22.818,2.72944 33.845,0 l 236.25985,-59.06498 c 15.5032,-3.93038 26.42094,-17.9051 26.42094,-33.84499 V 512.74689 l -149.57299,42.68837 c -4.6947,1.41931 -9.6077,2.07437 -14.5207,2.07437 z"
   id="path2"
   style="fill:#d4aa00;stroke-width:1.09177423" /></svg>